g GeoSphere001
v 0.47552824 -0.15450847 0
v 0.3440955 -0.24999997 0.26286554
v 0.4472136 0 0.2236068
v 0.47552824 0.1545085 0
v 0.29389274 -0.40450838 0
v 0.34409544 0.25 0.26286554
v 0.29389262 0.4045085 0
v 0.26286554 0 0.4253254
v 0.13819666 -0.4253254 0.2236068
v 2.4438103E-07 -0.5 0
v 0.13819659 0.4253254 0.2236068
v -2.1855694E-08 0.5 0
v 0.081229955 -0.25 0.4253254
v -0.13143271 -0.4045085 0.26286554
v -0.29389253 -0.40450853 0
v 0.08122991 0.25 0.4253254
v -0.1314328 0.40450847 0.26286554
v -0.2938926 0.4045085 0
v -0 0 0.5
v -0.21266267 -0.15450852 0.4253254
v -0.36180335 -0.2628656 0.2236068
v -0.47552824 -0.15450849 0
v -0.21266271 0.15450847 0.4253254
v -0.36180344 0.2628655 0.2236068
v -0.4755283 0.1545084 0
v -0.4253254 -4.2649607E-08 0.26286554
vt 0.33032227 0.0011196136
vt 0.2927246 0.21008301
vt 0.50341797 0.113586426
vt 0.67822266 0.0029678345
vt 0.0057754517 0.0051727295
vt 0.7133789 0.21228027
vt 0.9921875 0.010055542
vt 0.5024414 0.30810547
vt 0.13391113 0.37890625
vt 2.259016E-05 0.4963379
vt 0.8701172 0.38305664
vt 0.9975586 0.5024414
vt 0.31860352 0.44018555
vt 0.16064453 0.609375
vt 0.003610611 0.99316406
vt 0.6850586 0.44213867
vt 0.8408203 0.61279297
vt 0.9902344 0.9951172
vt 0.50146484 0.5004883
vt 0.38745117 0.6557617
vt 0.2722168 0.8125
vt 0.32226562 0.9946289
vt 0.61376953 0.6567383
vt 0.7270508 0.8149414
vt 0.6748047 0.99658203
vt 0.49951172 0.85839844
vn 0.9223633 -0.31591797 0.22167969
vn 0.6879883 -0.5 0.5258789
vn 0.89453125 0 0.44726562
vn 0.9223633 0.31591797 0.22167969
vn 0.5854492 -0.77978516 0.22167969
vn 0.6879883 0.5 0.5258789
vn 0.5854492 0.77978516 0.22167969
vn 0.5258789 0 0.85058594
vn 0.2763672 -0.85058594 0.44726562
vn -0.015457153 -0.97509766 0.22167969
vn 0.2763672 0.85058594 0.44726562
vn -0.015457153 0.97509766 0.22167969
vn 0.16247559 -0.5 0.85058594
vn -0.26293945 -0.80908203 0.5258789
vn -0.5605469 -0.79785156 0.22167969
vn 0.16247559 0.5 0.85058594
vn -0.26293945 0.80908203 0.5258789
vn -0.5605469 0.79785156 0.22167969
vn -0 0 1
vn -0.42529297 -0.30908203 0.85058594
vn -0.7236328 -0.5258789 0.44726562
vn -0.9321289 -0.2866211 0.22167969
vn -0.42529297 0.30908203 0.85058594
vn -0.7236328 0.5258789 0.44726562
vn -0.9321289 0.2866211 0.22167969
vn -0.85058594 -1.1920929E-07 0.5258789
g GeoSphere001_0
f 3/3/3 2/2/2 1/1/1
f 1/1/1 4/4/4 3/3/3
f 5/5/5 1/1/1 2/2/2
f 6/6/6 3/3/3 4/4/4
f 4/4/4 7/7/7 6/6/6
f 2/2/2 3/3/3 8/8/8
f 3/3/3 6/6/6 8/8/8
f 2/2/2 9/9/9 5/5/5
f 10/10/10 5/5/5 9/9/9
f 11/11/11 6/6/6 7/7/7
f 7/7/7 12/12/12 11/11/11
f 9/9/9 2/2/2 13/13/13
f 8/8/8 13/13/13 2/2/2
f 9/9/9 14/14/14 10/10/10
f 14/14/14 9/9/9 13/13/13
f 15/15/15 10/10/10 14/14/14
f 16/16/16 8/8/8 6/6/6
f 6/6/6 11/11/11 16/16/16
f 17/17/17 11/11/11 12/12/12
f 11/11/11 17/17/17 16/16/16
f 12/12/12 18/18/18 17/17/17
f 13/13/13 8/8/8 19/19/19
f 8/8/8 16/16/16 19/19/19
f 13/13/13 20/20/20 14/14/14
f 20/20/20 13/13/13 19/19/19
f 14/14/14 21/21/21 15/15/15
f 21/21/21 14/14/14 20/20/20
f 22/22/22 15/15/15 21/21/21
f 16/16/16 23/23/23 19/19/19
f 23/23/23 16/16/16 17/17/17
f 23/23/23 20/20/20 19/19/19
f 24/24/24 17/17/17 18/18/18
f 17/17/17 24/24/24 23/23/23
f 18/18/18 25/25/25 24/24/24
f 26/26/26 21/21/21 20/20/20
f 21/21/21 26/26/26 22/22/22
f 20/20/20 23/23/23 26/26/26
f 24/24/24 26/26/26 23/23/23
f 26/26/26 24/24/24 25/25/25
f 25/25/25 22/22/22 26/26/26
